<svg xmlns="http://www.w3.org/2000/svg" width="30" height="27.486" viewBox="0 0 30 27.486"><path d="M28.738,25.988H27.488V7.764l1.623-1.622A3.012,3.012,0,0,0,26.98,1H3.007A3.012,3.012,0,0,0,.877,6.142L2.5,7.764V25.988H1.251a1.249,1.249,0,1,0,0,2.5h5A3.753,3.753,0,0,0,10,24.739V18.492a5,5,0,1,1,10,0v6.247a3.753,3.753,0,0,0,3.748,3.748h5a1.249,1.249,0,1,0,0-2.5ZM2.533,3.816A.489.489,0,0,1,3.007,3.5H26.981a.514.514,0,0,1,.364.877L25.722,6H4.267L2.644,4.376a.49.49,0,0,1-.111-.56ZM22.491,24.739V18.492a7.5,7.5,0,0,0-14.993,0v6.247a1.251,1.251,0,0,1-1.249,1.249H5V8.5H24.99V25.988H23.74A1.251,1.251,0,0,1,22.491,24.739Z" transform="translate(0.006 -1.001)" fill="#a9a9a9"/></svg>