<svg xmlns="http://www.w3.org/2000/svg" width="30" height="29.952" viewBox="0 0 30 29.952"><path d="M29.06,11.274a3.737,3.737,0,0,0-2.834-1.286h-.112a11.238,11.238,0,0,0-22.336,0H3.715a3.731,3.731,0,0,0-3.708,4.27l1.323,9.264a7.52,7.52,0,0,0,7.416,6.43H21.194a7.52,7.52,0,0,0,7.416-6.43l1.323-9.264A3.761,3.761,0,0,0,29.06,11.274ZM14.952,2.5A8.756,8.756,0,0,1,23.6,9.988H6.3A8.756,8.756,0,0,1,14.952,2.5Zm12.51,11.411-1.323,9.264a5.01,5.01,0,0,1-4.944,4.282H8.747A5.021,5.021,0,0,1,3.8,23.172L2.479,13.908a1.269,1.269,0,0,1,.287-1,1.243,1.243,0,0,1,.949-.437h22.51a1.224,1.224,0,0,1,.936.424,1.212,1.212,0,0,1,.287,1Z" transform="translate(0.029)" fill="#a9a9a9"/></svg>