<svg xmlns="http://www.w3.org/2000/svg" width="30" height="40" viewBox="0 0 30 40"><path d="M25.564.013h-15a7.508,7.508,0,0,0-7.5,7.5v25a7.509,7.509,0,0,0,7.5,7.5H13.9a.834.834,0,0,0,.833-.833V28.325H21.4V39.18a.834.834,0,0,0,.833.833h3.333a7.509,7.509,0,0,0,7.5-7.5v-25A7.508,7.508,0,0,0,25.564.013Zm5.833,32.5a5.84,5.84,0,0,1-5.833,5.833h-2.5V28.325h2.393a.833.833,0,0,0,0-1.667h-15a.833.833,0,1,0,0,1.667h2.607V38.346h-2.5a5.84,5.84,0,0,1-5.833-5.833v-25A5.84,5.84,0,0,1,10.564,1.68h15A5.84,5.84,0,0,1,31.4,7.513ZM12.957,20.825a.834.834,0,0,1-.833.833H10.457a.833.833,0,1,1,0-1.667h1.667A.834.834,0,0,1,12.957,20.825Zm13.333,0a.834.834,0,0,1-.833.833H23.791a.833.833,0,0,1,0-1.667h1.667A.834.834,0,0,1,26.291,20.825ZM12.957,7.491a.834.834,0,0,1-.833.833H10.457a.833.833,0,1,1,0-1.667h1.667A.834.834,0,0,1,12.957,7.491Zm13.333,0a.834.834,0,0,1-.833.833H23.791a.833.833,0,0,1,0-1.667h1.667A.834.834,0,0,1,26.291,7.491ZM12.957,14.158a.834.834,0,0,1-.833.833H10.457a.833.833,0,1,1,0-1.667h1.667A.834.834,0,0,1,12.957,14.158Zm13.333,0a.834.834,0,0,1-.833.833H23.791a.833.833,0,0,1,0-1.667h1.667A.834.834,0,0,1,26.291,14.158Zm-6.667,6.667a.834.834,0,0,1-.833.833H17.124a.833.833,0,1,1,0-1.667h1.667A.834.834,0,0,1,19.624,20.825Zm0-13.333a.834.834,0,0,1-.833.833H17.124a.833.833,0,1,1,0-1.667h1.667A.834.834,0,0,1,19.624,7.491Zm0,6.667a.834.834,0,0,1-.833.833H17.124a.833.833,0,1,1,0-1.667h1.667A.834.834,0,0,1,19.624,14.158Z" transform="translate(-3.064 -0.013)" fill="#fff"/></svg>